<svg id="svg" version="1.1" xmlns="http://www.w3.org/2000/svg" xmlns:xlink="http://www.w3.org/1999/xlink" width="400" height="400" viewBox="0, 0, 400,400"><g id="svgg"><path id="path0" d="M194.954 52.406 C 194.731 52.629,193.615 52.832,192.474 52.858 C 191.334 52.883,190.400 53.061,190.400 53.252 C 190.400 53.444,189.680 53.600,188.800 53.600 C 187.920 53.600,187.200 53.780,187.200 54.000 C 187.200 54.220,186.660 54.400,186.000 54.400 C 185.340 54.400,184.800 54.580,184.800 54.800 C 184.800 55.020,184.451 55.200,184.024 55.200 C 183.597 55.200,183.136 55.380,183.000 55.600 C 182.864 55.820,182.313 56.000,181.776 56.000 C 181.239 56.000,180.800 56.180,180.800 56.400 C 180.800 56.620,180.440 56.800,180.000 56.800 C 179.560 56.800,179.200 56.980,179.200 57.200 C 179.200 57.420,178.750 57.600,178.200 57.600 C 177.650 57.600,177.200 57.780,177.200 58.000 C 177.200 58.220,176.870 58.400,176.467 58.400 C 176.063 58.400,175.598 58.535,175.433 58.700 C 175.268 58.865,175.013 59.015,174.867 59.034 C 174.048 59.136,172.455 60.022,172.274 60.474 C 172.158 60.764,172.049 60.800,172.032 60.555 C 171.994 60.033,170.000 60.319,170.000 60.847 C 170.000 61.041,169.719 61.200,169.376 61.200 C 169.033 61.200,168.841 61.343,168.949 61.517 C 169.056 61.691,168.575 61.877,167.879 61.931 C 167.183 61.984,166.439 62.201,166.227 62.413 C 166.014 62.626,165.516 62.800,165.120 62.800 C 164.724 62.800,164.399 62.935,164.397 63.100 C 164.393 63.442,162.471 64.400,161.788 64.400 C 161.187 64.400,157.572 66.238,157.774 66.441 C 157.860 66.529,157.363 66.641,156.668 66.692 C 155.974 66.742,155.344 66.967,155.269 67.192 C 155.195 67.416,154.788 67.600,154.367 67.600 C 153.945 67.600,153.600 67.780,153.600 68.000 C 153.600 68.220,153.060 68.400,152.400 68.400 C 151.740 68.400,151.200 68.580,151.200 68.800 C 151.200 69.020,150.840 69.200,150.400 69.200 C 149.960 69.200,149.600 69.380,149.600 69.600 C 149.600 69.820,149.240 70.000,148.800 70.000 C 148.360 70.000,148.000 70.180,148.000 70.400 C 148.000 70.620,147.561 70.800,147.024 70.800 C 146.487 70.800,145.936 70.980,145.800 71.200 C 145.664 71.420,145.203 71.600,144.776 71.600 C 144.349 71.600,144.000 71.780,144.000 72.000 C 144.000 72.220,143.629 72.400,143.176 72.400 C 142.723 72.400,142.464 72.580,142.600 72.800 C 142.744 73.033,142.337 73.200,141.624 73.200 C 140.951 73.200,140.400 73.380,140.400 73.600 C 140.400 73.820,140.040 74.000,139.600 74.000 C 139.160 74.000,138.800 74.180,138.800 74.400 C 138.800 74.620,138.350 74.800,137.800 74.800 C 137.250 74.800,136.800 74.991,136.800 75.224 C 136.800 75.457,136.632 75.544,136.427 75.417 C 135.986 75.144,133.200 76.402,133.200 76.874 C 133.200 77.053,132.763 77.200,132.229 77.200 C 131.695 77.200,129.895 77.830,128.228 78.600 C 126.561 79.370,124.927 80.000,124.598 80.000 C 124.269 80.000,124.000 80.180,124.000 80.400 C 124.000 80.620,123.640 80.800,123.200 80.800 C 122.760 80.800,122.400 80.980,122.400 81.200 C 122.400 81.420,121.849 81.600,121.176 81.600 C 120.463 81.600,120.056 81.767,120.200 82.000 C 120.339 82.225,120.018 82.400,119.466 82.400 C 118.927 82.400,118.383 82.667,118.258 82.993 C 118.133 83.320,117.772 83.487,117.456 83.366 C 117.140 83.245,116.762 83.338,116.617 83.573 C 116.472 83.808,115.913 84.000,115.376 84.000 C 114.839 84.000,114.400 84.180,114.400 84.400 C 114.400 84.620,114.040 84.800,113.600 84.800 C 113.160 84.800,112.800 84.980,112.800 85.200 C 112.800 85.420,112.350 85.600,111.800 85.600 C 111.250 85.600,110.800 85.780,110.800 86.000 C 110.800 86.220,110.395 86.403,109.900 86.406 C 109.172 86.411,109.115 86.486,109.600 86.800 C 110.055 87.094,109.886 87.189,108.900 87.194 C 108.185 87.197,107.600 87.380,107.600 87.600 C 107.600 87.820,107.060 88.000,106.400 88.000 C 105.740 88.000,105.200 88.180,105.200 88.400 C 105.200 88.620,104.840 88.800,104.400 88.800 C 103.960 88.800,103.600 88.980,103.600 89.200 C 103.600 89.420,103.240 89.600,102.800 89.600 C 102.360 89.600,102.000 89.780,102.000 90.000 C 102.000 90.220,101.460 90.400,100.800 90.400 C 100.140 90.400,99.600 90.580,99.600 90.800 C 99.600 91.020,99.251 91.200,98.824 91.200 C 98.397 91.200,97.936 91.380,97.800 91.600 C 97.664 91.820,97.203 92.000,96.776 92.000 C 96.349 92.000,96.000 92.188,96.000 92.418 C 96.000 92.647,95.775 92.806,95.500 92.770 C 94.555 92.647,93.953 92.800,94.147 93.114 C 94.254 93.287,94.039 93.446,93.671 93.466 C 92.535 93.530,88.785 95.052,89.067 95.334 C 89.214 95.480,88.954 95.600,88.490 95.600 C 88.027 95.600,87.536 95.780,87.400 96.000 C 87.264 96.220,86.724 96.400,86.200 96.400 C 85.676 96.400,85.136 96.580,85.000 96.800 C 84.864 97.020,84.403 97.200,83.976 97.200 C 83.549 97.200,83.200 97.380,83.200 97.600 C 83.200 97.820,82.840 98.000,82.400 98.000 C 81.960 98.000,81.600 98.180,81.600 98.400 C 81.600 98.620,81.161 98.800,80.624 98.800 C 80.087 98.800,79.536 98.980,79.400 99.200 C 79.264 99.420,78.803 99.600,78.376 99.600 C 77.949 99.600,77.600 99.760,77.600 99.956 C 77.600 100.152,76.790 100.551,75.800 100.843 C 74.810 101.135,74.000 101.515,74.000 101.687 C 74.000 101.859,73.640 102.000,73.200 102.000 C 72.760 102.000,72.400 102.180,72.400 102.400 C 72.400 102.620,71.961 102.800,71.424 102.800 C 70.887 102.800,70.336 102.980,70.200 103.200 C 70.064 103.420,69.603 103.600,69.176 103.600 C 68.749 103.600,68.400 103.780,68.400 104.000 C 68.400 104.220,68.040 104.400,67.600 104.400 C 67.160 104.400,66.800 104.580,66.800 104.800 C 66.800 105.020,66.260 105.200,65.600 105.200 C 64.940 105.200,64.400 105.380,64.400 105.600 C 64.400 105.820,64.040 106.000,63.600 106.000 C 63.160 106.000,62.800 106.180,62.800 106.400 C 62.800 106.620,62.440 106.800,62.000 106.800 C 61.560 106.800,61.200 106.980,61.200 107.200 C 61.200 107.420,60.924 107.600,60.586 107.600 C 60.248 107.600,59.528 107.891,58.986 108.246 C 58.444 108.601,58.000 108.759,58.000 108.597 C 58.000 108.435,57.738 108.520,57.418 108.785 C 57.097 109.051,56.668 109.165,56.463 109.039 C 56.258 108.912,55.861 109.085,55.581 109.423 C 55.301 109.760,54.836 109.946,54.549 109.836 C 54.261 109.725,53.919 109.807,53.789 110.017 C 53.659 110.228,53.203 110.400,52.776 110.400 C 52.349 110.400,52.000 110.580,52.000 110.800 C 52.000 111.020,51.751 111.200,51.446 111.200 C 51.141 111.200,50.389 111.461,49.774 111.780 C 49.160 112.098,48.509 112.268,48.329 112.156 C 48.148 112.044,48.000 112.143,48.000 112.376 C 48.000 112.609,47.640 112.800,47.200 112.800 C 46.760 112.800,46.400 112.980,46.400 113.200 C 46.400 113.420,45.950 113.600,45.400 113.600 C 44.850 113.600,44.400 113.780,44.400 114.000 C 44.400 114.220,44.040 114.400,43.600 114.400 C 43.160 114.400,42.799 114.535,42.797 114.700 C 42.792 115.147,40.774 116.000,39.720 116.000 C 39.214 116.000,38.800 116.180,38.800 116.400 C 38.800 116.620,38.440 116.800,38.000 116.800 C 37.560 116.800,37.200 116.980,37.200 117.200 C 37.200 117.420,36.862 117.600,36.449 117.600 C 36.036 117.600,35.489 117.851,35.234 118.159 C 34.979 118.466,34.417 118.625,33.985 118.512 C 33.551 118.399,33.200 118.506,33.200 118.753 C 33.200 118.999,32.840 119.200,32.400 119.200 C 31.960 119.200,31.600 119.380,31.600 119.600 C 31.600 119.820,31.150 120.000,30.600 120.000 C 30.050 120.000,29.600 120.180,29.600 120.400 C 29.600 120.620,29.150 120.800,28.600 120.800 C 28.050 120.800,27.600 120.980,27.600 121.200 C 27.600 121.420,27.229 121.600,26.776 121.600 C 26.323 121.600,26.064 121.780,26.200 122.000 C 26.344 122.233,25.937 122.400,25.224 122.400 C 24.551 122.400,24.000 122.580,24.000 122.800 C 24.000 123.020,23.640 123.200,23.200 123.200 C 22.760 123.200,22.400 123.380,22.400 123.600 C 22.400 123.820,22.040 124.000,21.600 124.000 C 21.160 124.000,20.800 124.180,20.800 124.400 C 20.800 124.620,20.260 124.800,19.600 124.800 C 18.940 124.800,18.400 125.010,18.400 125.267 C 18.400 125.523,18.287 125.621,18.149 125.483 C 18.011 125.345,17.381 125.499,16.749 125.826 C 16.117 126.153,15.595 126.281,15.588 126.110 C 15.581 125.940,15.396 126.108,15.177 126.483 C 14.958 126.860,14.515 127.065,14.189 126.941 C 13.865 126.816,13.600 126.914,13.600 127.157 C 13.600 127.401,13.259 127.600,12.843 127.600 C 12.426 127.600,11.972 127.896,11.833 128.257 C 11.695 128.619,11.467 128.800,11.327 128.660 C 10.997 128.331,5.574 133.883,4.832 135.309 C 4.520 135.909,4.115 136.400,3.932 136.400 C 3.750 136.400,3.600 136.760,3.600 137.200 C 3.600 137.640,3.420 138.000,3.200 138.000 C 2.980 138.000,2.800 138.360,2.800 138.800 C 2.800 139.240,2.620 139.600,2.400 139.600 C 2.180 139.600,2.000 140.140,2.000 140.800 C 2.000 141.460,1.820 142.000,1.600 142.000 C 1.380 142.000,1.200 142.529,1.200 143.176 C 1.200 143.823,1.020 144.464,0.800 144.600 C 0.263 144.932,0.263 155.200,0.800 155.200 C 1.020 155.200,1.200 155.819,1.200 156.576 C 1.200 157.333,1.380 158.064,1.600 158.200 C 1.820 158.336,2.000 158.887,2.000 159.424 C 2.000 159.961,2.180 160.400,2.400 160.400 C 2.620 160.400,2.800 160.760,2.800 161.200 C 2.800 161.640,2.980 162.000,3.200 162.000 C 3.420 162.000,3.600 162.360,3.600 162.800 C 3.600 163.240,3.750 163.600,3.932 163.600 C 4.115 163.600,4.520 164.095,4.832 164.700 C 5.667 166.317,10.822 171.366,12.313 172.026 C 13.021 172.339,13.600 172.731,13.600 172.898 C 13.600 173.064,13.960 173.200,14.400 173.200 C 14.840 173.200,15.200 173.380,15.200 173.600 C 15.200 173.820,15.449 174.000,15.754 174.000 C 16.059 174.000,16.824 174.269,17.454 174.598 C 18.084 174.926,19.095 175.196,19.700 175.198 C 20.305 175.199,20.800 175.380,20.800 175.600 C 20.800 175.820,21.160 176.000,21.600 176.000 C 22.040 176.000,22.400 176.180,22.400 176.400 C 22.400 176.620,22.760 176.800,23.200 176.800 C 23.640 176.800,24.000 176.980,24.000 177.200 C 24.000 177.420,24.675 177.603,25.500 177.606 C 26.616 177.611,26.846 177.712,26.400 178.000 C 25.915 178.314,25.972 178.389,26.700 178.394 C 27.195 178.397,27.600 178.580,27.600 178.800 C 27.600 179.020,28.050 179.200,28.600 179.200 C 29.150 179.200,29.600 179.380,29.600 179.600 C 29.600 179.820,30.050 180.000,30.600 180.000 C 31.150 180.000,31.600 180.180,31.600 180.400 C 31.600 180.620,31.960 180.800,32.400 180.800 C 32.840 180.800,33.200 180.980,33.200 181.200 C 33.200 181.420,33.639 181.600,34.176 181.600 C 34.713 181.600,35.264 181.780,35.400 182.000 C 35.536 182.220,35.997 182.400,36.424 182.400 C 36.851 182.400,37.200 182.580,37.200 182.800 C 37.200 183.020,37.560 183.200,38.000 183.200 C 38.440 183.200,38.800 183.380,38.800 183.600 C 38.800 183.820,39.340 184.000,40.000 184.000 C 40.660 184.000,41.200 184.180,41.200 184.400 C 41.200 184.620,41.560 184.800,42.000 184.800 C 42.440 184.800,42.800 184.980,42.800 185.200 C 42.800 185.420,43.160 185.600,43.600 185.600 C 44.040 185.600,44.400 185.780,44.400 186.000 C 44.400 186.220,44.850 186.400,45.400 186.400 C 45.950 186.400,46.400 186.580,46.400 186.800 C 46.400 187.020,46.760 187.200,47.200 187.200 C 47.640 187.200,48.000 187.380,48.000 187.600 C 48.000 187.820,48.439 188.000,48.976 188.000 C 49.513 188.000,50.064 188.180,50.200 188.400 C 50.336 188.620,50.797 188.800,51.224 188.800 C 51.651 188.800,52.000 188.980,52.000 189.200 C 52.000 189.420,52.272 189.600,52.605 189.600 C 53.187 189.600,53.579 189.753,55.451 190.710 C 55.919 190.949,56.954 191.268,57.751 191.417 C 58.548 191.567,59.203 191.894,59.206 192.145 C 59.209 192.395,59.387 192.330,59.600 192.000 C 59.858 191.600,59.990 191.567,59.994 191.900 C 59.997 192.175,60.270 192.400,60.600 192.400 C 60.930 192.400,61.200 192.580,61.200 192.800 C 61.200 193.020,61.560 193.200,62.000 193.200 C 62.440 193.200,62.800 193.380,62.800 193.600 C 62.800 193.820,63.160 194.000,63.600 194.000 C 64.040 194.000,64.400 194.180,64.400 194.400 C 64.400 194.620,64.940 194.800,65.600 194.800 C 66.260 194.800,66.800 194.980,66.800 195.200 C 66.800 195.420,67.160 195.600,67.600 195.600 C 68.040 195.600,68.400 195.780,68.400 196.000 C 68.400 196.220,68.749 196.400,69.176 196.400 C 69.603 196.400,70.064 196.580,70.200 196.800 C 70.336 197.020,70.887 197.200,71.424 197.200 C 71.961 197.200,72.400 197.380,72.400 197.600 C 72.400 197.820,72.760 198.000,73.200 198.000 C 73.640 198.000,74.000 198.158,74.000 198.350 C 74.000 198.680,76.241 199.373,76.911 199.250 C 77.082 199.218,77.327 199.464,77.454 199.796 C 77.581 200.128,78.016 200.400,78.419 200.400 C 78.823 200.400,79.264 200.580,79.400 200.800 C 79.536 201.020,80.087 201.200,80.624 201.200 C 81.161 201.200,81.600 201.380,81.600 201.600 C 81.600 201.820,81.960 202.000,82.400 202.000 C 82.840 202.000,83.200 202.180,83.200 202.400 C 83.200 202.620,83.549 202.800,83.976 202.800 C 84.403 202.800,84.864 202.980,85.000 203.200 C 85.136 203.420,85.687 203.600,86.224 203.600 C 86.761 203.600,87.200 203.780,87.200 204.000 C 87.200 204.220,87.560 204.400,88.000 204.400 C 88.440 204.400,88.800 204.580,88.800 204.800 C 88.800 205.020,89.065 205.200,89.390 205.200 C 89.714 205.200,91.109 205.711,92.490 206.336 C 93.870 206.961,95.990 207.816,97.200 208.236 C 98.410 208.656,99.460 209.135,99.533 209.300 C 99.607 209.465,100.192 209.600,100.833 209.600 C 101.475 209.600,102.000 209.780,102.000 210.000 C 102.000 210.220,102.360 210.400,102.800 210.400 C 103.240 210.400,103.600 210.580,103.600 210.800 C 103.600 211.020,103.960 211.200,104.400 211.200 C 104.840 211.200,105.200 211.380,105.200 211.600 C 105.200 211.820,105.740 212.000,106.400 212.000 C 107.060 212.000,107.600 212.180,107.600 212.400 C 107.600 212.620,107.960 212.800,108.400 212.800 C 108.840 212.800,109.200 212.980,109.200 213.200 C 109.200 213.420,109.560 213.600,110.000 213.600 C 110.440 213.600,110.800 213.780,110.800 214.000 C 110.800 214.220,111.250 214.400,111.800 214.400 C 112.350 214.400,112.800 214.580,112.800 214.800 C 112.800 215.020,113.160 215.200,113.600 215.200 C 114.040 215.200,114.400 215.380,114.400 215.600 C 114.400 215.820,114.839 216.000,115.376 216.000 C 115.913 216.000,116.464 216.180,116.600 216.400 C 116.736 216.620,117.297 216.800,117.847 216.800 C 118.412 216.800,118.740 216.974,118.600 217.200 C 118.464 217.420,118.723 217.600,119.176 217.600 C 119.629 217.600,120.000 217.780,120.000 218.000 C 120.000 218.220,120.540 218.400,121.200 218.400 C 121.860 218.400,122.400 218.580,122.400 218.800 C 122.400 219.020,122.760 219.200,123.200 219.200 C 123.640 219.200,124.000 219.380,124.000 219.600 C 124.000 219.820,124.272 220.000,124.605 220.000 C 124.938 220.000,125.523 220.166,125.905 220.368 C 127.959 221.457,132.024 223.200,132.508 223.200 C 132.815 223.200,133.195 223.328,133.352 223.485 C 133.916 224.049,137.425 225.199,138.600 225.206 C 139.522 225.211,139.661 225.302,139.200 225.600 C 138.715 225.914,138.772 225.989,139.500 225.994 C 139.995 225.997,140.400 226.180,140.400 226.400 C 140.400 226.620,140.951 226.800,141.624 226.800 C 142.337 226.800,142.744 226.967,142.600 227.200 C 142.464 227.420,142.723 227.600,143.176 227.600 C 143.629 227.600,144.000 227.780,144.000 228.000 C 144.000 228.220,144.349 228.400,144.776 228.400 C 145.203 228.400,145.664 228.580,145.800 228.800 C 145.936 229.020,146.487 229.200,147.024 229.200 C 147.561 229.200,148.000 229.380,148.000 229.600 C 148.000 229.820,148.360 230.000,148.800 230.000 C 149.240 230.000,149.600 230.180,149.600 230.400 C 149.600 230.620,149.960 230.800,150.400 230.800 C 150.840 230.800,151.200 230.980,151.200 231.200 C 151.200 231.420,151.740 231.600,152.400 231.600 C 153.060 231.600,153.600 231.780,153.600 232.000 C 153.600 232.220,153.960 232.400,154.400 232.400 C 154.840 232.400,155.200 232.580,155.200 232.800 C 155.200 233.020,155.515 233.206,155.900 233.213 C 156.285 233.219,157.675 233.759,158.990 234.413 C 160.304 235.066,161.699 235.600,162.090 235.600 C 162.480 235.600,162.800 235.780,162.800 236.000 C 162.800 236.220,163.160 236.400,163.600 236.400 C 164.040 236.400,164.400 236.580,164.400 236.800 C 164.400 237.020,164.749 237.200,165.176 237.200 C 165.603 237.200,166.064 237.380,166.200 237.600 C 166.336 237.820,166.887 238.000,167.424 238.000 C 167.961 238.000,168.400 238.180,168.400 238.400 C 168.400 238.620,168.760 238.800,169.200 238.800 C 169.640 238.800,170.000 238.964,170.000 239.165 C 170.000 239.365,170.465 239.479,171.032 239.416 C 171.626 239.351,172.154 239.536,172.275 239.851 C 172.391 240.153,172.826 240.400,173.243 240.400 C 173.659 240.400,174.000 240.580,174.000 240.800 C 174.000 241.020,174.135 241.176,174.300 241.146 C 174.966 241.028,177.200 241.723,177.200 242.050 C 177.200 242.242,177.650 242.400,178.200 242.400 C 178.750 242.400,179.200 242.580,179.200 242.800 C 179.200 243.020,179.560 243.200,180.000 243.200 C 180.440 243.200,180.800 243.380,180.800 243.600 C 180.800 243.820,181.239 244.000,181.776 244.000 C 182.313 244.000,182.864 244.180,183.000 244.400 C 183.136 244.620,183.597 244.800,184.024 244.800 C 184.451 244.800,184.800 244.980,184.800 245.200 C 184.800 245.420,185.340 245.600,186.000 245.600 C 186.660 245.600,187.200 245.780,187.200 246.000 C 187.200 246.220,187.920 246.400,188.800 246.400 C 189.680 246.400,190.400 246.563,190.400 246.762 C 190.400 246.960,191.314 247.130,192.432 247.139 C 193.549 247.148,194.676 247.331,194.937 247.547 C 195.567 248.070,204.680 248.117,205.000 247.599 C 205.136 247.380,206.227 247.200,207.424 247.200 C 208.621 247.200,209.600 247.020,209.600 246.800 C 209.600 246.580,210.320 246.400,211.200 246.400 C 212.080 246.400,212.800 246.220,212.800 246.000 C 212.800 245.780,213.340 245.600,214.000 245.600 C 214.660 245.600,215.200 245.420,215.200 245.200 C 215.200 244.980,215.560 244.800,216.000 244.800 C 216.440 244.800,216.800 244.620,216.800 244.400 C 216.800 244.180,217.340 244.000,218.000 244.000 C 218.660 244.000,219.200 243.820,219.200 243.600 C 219.200 243.380,219.560 243.200,220.000 243.200 C 220.440 243.200,220.800 243.020,220.800 242.800 C 220.800 242.580,221.250 242.400,221.800 242.400 C 222.350 242.400,222.800 242.242,222.800 242.050 C 222.800 241.723,225.034 241.028,225.700 241.146 C 225.865 241.176,226.000 241.053,226.000 240.872 C 226.000 240.692,226.900 240.300,228.000 240.000 C 229.100 239.700,230.000 239.308,230.000 239.128 C 230.000 238.947,230.360 238.800,230.800 238.800 C 231.240 238.800,231.600 238.620,231.600 238.400 C 231.600 238.180,232.039 238.000,232.576 238.000 C 233.113 238.000,233.664 237.820,233.800 237.600 C 233.936 237.380,234.397 237.200,234.824 237.200 C 235.251 237.200,235.600 237.020,235.600 236.800 C 235.600 236.580,235.960 236.400,236.400 236.400 C 236.840 236.400,237.200 236.220,237.200 236.000 C 237.200 235.780,237.532 235.600,237.939 235.600 C 238.860 235.600,241.200 234.458,241.200 234.008 C 241.200 233.825,241.540 233.764,241.955 233.872 C 242.370 233.981,242.831 233.874,242.978 233.635 C 243.126 233.396,243.597 233.200,244.024 233.200 C 244.451 233.200,244.800 233.020,244.800 232.800 C 244.800 232.580,245.083 232.400,245.429 232.400 C 245.774 232.400,246.319 232.138,246.640 231.817 C 246.961 231.496,247.470 231.329,247.771 231.444 C 248.072 231.560,248.438 231.462,248.583 231.227 C 248.728 230.992,249.197 230.800,249.624 230.800 C 250.051 230.800,250.400 230.620,250.400 230.400 C 250.400 230.180,250.760 230.000,251.200 230.000 C 251.640 230.000,252.000 229.820,252.000 229.600 C 252.000 229.380,252.439 229.200,252.976 229.200 C 253.513 229.200,254.064 229.020,254.200 228.800 C 254.336 228.580,254.797 228.400,255.224 228.400 C 255.651 228.400,256.000 228.220,256.000 228.000 C 256.000 227.780,256.360 227.600,256.800 227.600 C 257.240 227.600,257.600 227.420,257.600 227.200 C 257.600 226.980,258.050 226.800,258.600 226.800 C 259.150 226.800,259.600 226.620,259.600 226.400 C 259.600 226.180,259.960 226.000,260.400 226.000 C 260.840 226.000,261.200 225.820,261.200 225.600 C 261.200 225.380,261.651 225.200,262.202 225.200 C 262.753 225.200,264.137 224.750,265.277 224.200 C 266.417 223.650,267.505 223.200,267.694 223.200 C 267.884 223.200,268.784 222.840,269.694 222.400 C 270.605 221.960,271.586 221.600,271.875 221.600 C 272.164 221.600,272.400 221.420,272.400 221.200 C 272.400 220.980,272.850 220.800,273.400 220.800 C 273.950 220.800,274.400 220.620,274.400 220.400 C 274.400 220.180,274.760 220.000,275.200 220.000 C 275.640 220.000,276.000 219.820,276.000 219.600 C 276.000 219.380,276.338 219.200,276.751 219.200 C 277.164 219.200,277.711 218.949,277.966 218.641 C 278.221 218.334,278.783 218.175,279.215 218.288 C 279.649 218.401,280.000 218.294,280.000 218.047 C 280.000 217.801,280.360 217.600,280.800 217.600 C 281.240 217.600,281.600 217.420,281.600 217.200 C 281.600 216.980,282.039 216.800,282.576 216.800 C 283.113 216.800,283.664 216.620,283.800 216.400 C 283.936 216.180,284.397 216.000,284.824 216.000 C 285.251 216.000,285.600 215.820,285.600 215.600 C 285.600 215.380,285.960 215.200,286.400 215.200 C 286.840 215.200,287.200 215.020,287.200 214.800 C 287.200 214.580,287.650 214.400,288.200 214.400 C 288.750 214.400,289.200 214.220,289.200 214.000 C 289.200 213.780,289.434 213.600,289.720 213.600 C 290.456 213.600,292.393 212.659,292.397 212.300 C 292.399 212.135,292.940 212.000,293.600 212.000 C 294.260 212.000,294.800 211.820,294.800 211.600 C 294.800 211.380,295.160 211.200,295.600 211.200 C 296.040 211.200,296.400 211.020,296.400 210.800 C 296.400 210.580,296.749 210.400,297.176 210.400 C 297.603 210.400,298.064 210.220,298.200 210.000 C 298.336 209.780,298.887 209.600,299.424 209.600 C 299.961 209.600,300.400 209.420,300.400 209.200 C 300.400 208.980,300.760 208.800,301.200 208.800 C 301.640 208.800,302.000 208.609,302.000 208.376 C 302.000 208.143,302.189 208.070,302.420 208.212 C 302.651 208.355,303.416 208.205,304.120 207.879 C 308.379 205.906,310.091 205.200,310.612 205.200 C 310.935 205.200,311.200 205.020,311.200 204.800 C 311.200 204.580,311.541 204.400,311.957 204.400 C 312.374 204.400,312.813 204.144,312.933 203.831 C 313.061 203.496,313.472 203.346,313.930 203.466 C 314.359 203.578,314.831 203.474,314.978 203.235 C 315.126 202.996,315.577 202.800,315.981 202.800 C 316.384 202.800,316.817 202.533,316.942 202.207 C 317.072 201.869,317.435 201.715,317.785 201.850 C 318.123 201.979,318.400 201.886,318.400 201.643 C 318.400 201.399,318.839 201.200,319.376 201.200 C 319.913 201.200,320.464 201.020,320.600 200.800 C 320.736 200.580,321.197 200.400,321.624 200.400 C 322.051 200.400,322.400 200.220,322.400 200.000 C 322.400 199.780,322.749 199.600,323.176 199.600 C 323.603 199.600,324.064 199.420,324.200 199.200 C 324.336 198.980,324.797 198.800,325.224 198.800 C 325.651 198.800,326.000 198.620,326.000 198.400 C 326.000 198.180,326.360 198.000,326.800 198.000 C 327.240 198.000,327.600 197.820,327.600 197.600 C 327.600 197.380,328.140 197.200,328.800 197.200 C 329.460 197.200,330.000 197.020,330.000 196.800 C 330.000 196.580,330.360 196.400,330.800 196.400 C 331.240 196.400,331.600 196.220,331.600 196.000 C 331.600 195.780,331.960 195.600,332.400 195.600 C 332.840 195.600,333.200 195.420,333.200 195.200 C 333.200 194.980,333.740 194.800,334.400 194.800 C 335.060 194.800,335.600 194.620,335.600 194.400 C 335.600 194.180,335.960 194.000,336.400 194.000 C 336.840 194.000,337.200 193.820,337.200 193.600 C 337.200 193.380,337.549 193.200,337.976 193.200 C 338.403 193.200,338.864 193.020,339.000 192.800 C 339.136 192.580,339.582 192.400,339.990 192.400 C 340.399 192.400,340.793 192.264,340.867 192.098 C 340.940 191.932,342.170 191.419,343.600 190.958 C 345.030 190.497,346.164 189.939,346.120 189.719 C 346.076 189.499,346.481 189.403,347.020 189.506 C 347.587 189.614,348.000 189.505,348.000 189.247 C 348.000 189.001,348.279 188.800,348.619 188.800 C 348.960 188.800,349.984 188.440,350.894 188.000 C 351.805 187.560,352.786 187.200,353.075 187.200 C 353.364 187.200,353.600 187.020,353.600 186.800 C 353.600 186.580,354.050 186.400,354.600 186.400 C 355.150 186.400,355.600 186.220,355.600 186.000 C 355.600 185.780,355.865 185.600,356.188 185.600 C 356.511 185.600,357.417 185.240,358.200 184.800 C 358.983 184.360,359.979 184.000,360.412 184.000 C 360.845 184.000,361.200 183.820,361.200 183.600 C 361.200 183.380,361.560 183.200,362.000 183.200 C 362.440 183.200,362.800 183.020,362.800 182.800 C 362.800 182.580,363.239 182.400,363.776 182.400 C 364.313 182.400,364.864 182.220,365.000 182.000 C 365.136 181.780,365.597 181.600,366.024 181.600 C 366.451 181.600,366.800 181.420,366.800 181.200 C 366.800 180.980,367.160 180.800,367.600 180.800 C 368.040 180.800,368.400 180.620,368.400 180.400 C 368.400 180.180,368.850 180.000,369.400 180.000 C 369.950 180.000,370.400 179.820,370.400 179.600 C 370.400 179.380,370.850 179.200,371.400 179.200 C 371.950 179.200,372.400 179.020,372.400 178.800 C 372.400 178.580,372.760 178.400,373.200 178.400 C 373.640 178.400,374.000 178.220,374.000 178.000 C 374.000 177.780,374.450 177.600,375.000 177.600 C 375.550 177.600,376.000 177.420,376.000 177.200 C 376.000 176.980,376.360 176.800,376.800 176.800 C 377.240 176.800,377.600 176.620,377.600 176.400 C 377.600 176.180,377.949 176.000,378.376 176.000 C 378.803 176.000,379.264 175.820,379.400 175.600 C 379.536 175.380,380.076 175.200,380.600 175.200 C 381.124 175.200,381.666 175.017,381.804 174.793 C 381.942 174.570,382.210 174.483,382.400 174.600 C 382.590 174.717,382.858 174.630,382.996 174.407 C 383.134 174.183,383.597 174.000,384.024 174.000 C 384.451 174.000,384.800 173.820,384.800 173.600 C 384.800 173.380,385.160 173.200,385.600 173.200 C 386.040 173.200,386.400 173.020,386.400 172.800 C 386.400 172.580,386.625 172.396,386.900 172.391 C 387.175 172.386,387.850 172.011,388.400 171.556 C 388.950 171.102,389.147 170.864,388.838 171.027 C 388.464 171.224,388.373 171.167,388.566 170.855 C 388.725 170.598,389.031 170.496,389.247 170.629 C 389.682 170.898,394.800 165.837,394.800 165.137 C 394.800 164.893,395.177 164.367,395.637 163.968 C 396.097 163.569,396.356 163.052,396.211 162.818 C 396.067 162.585,396.231 162.286,396.575 162.154 C 396.919 162.022,397.200 161.574,397.200 161.157 C 397.200 160.741,397.380 160.400,397.600 160.400 C 397.820 160.400,398.000 159.961,398.000 159.424 C 398.000 158.887,398.180 158.336,398.400 158.200 C 398.620 158.064,398.800 157.333,398.800 156.576 C 398.800 155.819,398.980 155.200,399.200 155.200 C 399.446 155.200,399.600 153.200,399.600 150.000 C 399.600 146.800,399.446 144.800,399.200 144.800 C 398.980 144.800,398.800 144.170,398.800 143.400 C 398.800 142.630,398.620 142.000,398.400 142.000 C 398.180 142.000,398.000 141.460,398.000 140.800 C 398.000 140.140,397.820 139.600,397.600 139.600 C 397.380 139.600,397.200 139.240,397.200 138.800 C 397.200 138.360,397.020 138.000,396.800 138.000 C 396.580 138.000,396.400 137.680,396.400 137.288 C 396.400 136.897,396.040 136.317,395.600 136.000 C 395.160 135.683,394.800 135.200,394.800 134.926 C 394.800 134.120,389.730 129.073,389.230 129.381 C 388.983 129.534,388.830 129.462,388.890 129.220 C 388.951 128.978,388.460 128.469,387.800 128.090 C 387.140 127.710,386.540 127.265,386.467 127.100 C 386.393 126.935,386.071 126.800,385.751 126.800 C 385.430 126.800,384.478 126.448,383.634 126.017 C 382.790 125.587,381.987 125.347,381.850 125.484 C 381.712 125.621,381.600 125.523,381.600 125.267 C 381.600 125.010,381.161 124.800,380.624 124.800 C 380.087 124.800,379.536 124.620,379.400 124.400 C 379.264 124.180,378.803 124.000,378.376 124.000 C 377.949 124.000,377.600 123.820,377.600 123.600 C 377.600 123.380,377.240 123.200,376.800 123.200 C 376.360 123.200,376.000 123.020,376.000 122.800 C 376.000 122.580,375.550 122.400,375.000 122.400 C 374.450 122.400,374.000 122.220,374.000 122.000 C 374.000 121.780,373.640 121.600,373.200 121.600 C 372.760 121.600,372.400 121.420,372.400 121.200 C 372.400 120.980,371.950 120.800,371.400 120.800 C 370.850 120.800,370.400 120.620,370.400 120.400 C 370.400 120.180,369.950 120.000,369.400 120.000 C 368.850 120.000,368.400 119.820,368.400 119.600 C 368.400 119.380,368.040 119.200,367.600 119.200 C 367.160 119.200,366.800 119.020,366.800 118.800 C 366.800 118.580,366.451 118.400,366.024 118.400 C 365.597 118.400,365.136 118.220,365.000 118.000 C 364.864 117.780,364.313 117.600,363.776 117.600 C 363.239 117.600,362.800 117.420,362.800 117.200 C 362.800 116.980,362.440 116.800,362.000 116.800 C 361.560 116.800,361.200 116.620,361.200 116.400 C 361.200 116.180,360.845 116.000,360.412 116.000 C 359.979 116.000,358.983 115.640,358.200 115.200 C 357.417 114.760,356.511 114.400,356.188 114.400 C 355.865 114.400,355.600 114.199,355.600 113.953 C 355.600 113.693,355.184 113.586,354.600 113.698 C 354.016 113.809,353.600 113.703,353.600 113.442 C 353.600 113.197,352.925 112.758,352.100 112.467 C 348.425 111.170,348.000 110.987,348.000 110.702 C 348.000 110.536,347.670 110.400,347.267 110.400 C 346.863 110.400,346.398 110.265,346.233 110.100 C 346.068 109.935,345.813 109.794,345.667 109.786 C 345.520 109.778,345.040 109.576,344.600 109.338 C 344.160 109.099,343.485 108.955,343.100 109.017 C 342.715 109.079,342.400 108.965,342.400 108.765 C 342.400 108.564,342.040 108.400,341.600 108.400 C 341.160 108.400,340.800 108.220,340.800 108.000 C 340.800 107.780,340.451 107.600,340.024 107.600 C 339.597 107.600,339.136 107.420,339.000 107.200 C 338.864 106.980,338.403 106.800,337.976 106.800 C 337.549 106.800,337.200 106.620,337.200 106.400 C 337.200 106.180,336.840 106.000,336.400 106.000 C 335.960 106.000,335.600 105.820,335.600 105.600 C 335.600 105.380,335.060 105.200,334.400 105.200 C 333.740 105.200,333.200 105.020,333.200 104.800 C 333.200 104.580,332.840 104.400,332.400 104.400 C 331.960 104.400,331.600 104.220,331.600 104.000 C 331.600 103.780,331.240 103.600,330.800 103.600 C 330.360 103.600,330.000 103.420,330.000 103.200 C 330.000 102.980,329.460 102.800,328.800 102.800 C 328.140 102.800,327.600 102.620,327.600 102.400 C 327.600 102.180,327.240 102.000,326.800 102.000 C 326.360 102.000,326.000 101.820,326.000 101.600 C 326.000 101.380,325.651 101.200,325.224 101.200 C 324.797 101.200,324.336 101.020,324.200 100.800 C 324.064 100.580,323.603 100.400,323.176 100.400 C 322.749 100.400,322.400 100.220,322.400 100.000 C 322.400 99.780,322.051 99.600,321.624 99.600 C 321.197 99.600,320.736 99.420,320.600 99.200 C 320.464 98.980,319.913 98.800,319.376 98.800 C 318.839 98.800,318.400 98.620,318.400 98.400 C 318.400 98.180,318.040 98.000,317.600 98.000 C 317.160 98.000,316.800 97.820,316.800 97.600 C 316.800 97.380,316.451 97.200,316.024 97.200 C 315.597 97.200,315.136 97.020,315.000 96.800 C 314.864 96.580,314.313 96.400,313.776 96.400 C 313.239 96.400,312.800 96.220,312.800 96.000 C 312.800 95.780,312.440 95.600,312.000 95.600 C 311.560 95.600,311.200 95.420,311.200 95.200 C 311.200 94.980,310.926 94.800,310.591 94.800 C 310.256 94.800,308.859 94.291,307.486 93.668 C 306.114 93.046,304.768 92.611,304.495 92.702 C 304.223 92.792,304.000 92.672,304.000 92.433 C 304.000 92.195,303.651 92.000,303.224 92.000 C 302.797 92.000,302.336 91.820,302.200 91.600 C 302.064 91.380,301.603 91.200,301.176 91.200 C 300.749 91.200,300.400 91.020,300.400 90.800 C 300.400 90.580,299.961 90.400,299.424 90.400 C 298.887 90.400,298.336 90.220,298.200 90.000 C 298.064 89.780,297.603 89.600,297.176 89.600 C 296.749 89.600,296.400 89.420,296.400 89.200 C 296.400 88.980,296.040 88.800,295.600 88.800 C 295.160 88.800,294.800 88.620,294.800 88.400 C 294.800 88.180,294.260 88.000,293.600 88.000 C 292.940 88.000,292.399 87.865,292.397 87.700 C 292.393 87.341,290.456 86.400,289.720 86.400 C 289.434 86.400,289.200 86.220,289.200 86.000 C 289.200 85.780,288.750 85.600,288.200 85.600 C 287.650 85.600,287.200 85.420,287.200 85.200 C 287.200 84.980,286.840 84.800,286.400 84.800 C 285.960 84.800,285.600 84.620,285.600 84.400 C 285.600 84.180,285.251 84.000,284.824 84.000 C 284.397 84.000,283.936 83.820,283.800 83.600 C 283.664 83.380,283.113 83.200,282.576 83.200 C 282.039 83.200,281.600 83.020,281.600 82.800 C 281.600 82.580,281.240 82.400,280.800 82.400 C 280.360 82.400,280.000 82.220,280.000 82.000 C 280.000 81.780,279.561 81.600,279.024 81.600 C 278.487 81.600,277.936 81.420,277.800 81.200 C 277.664 80.980,277.203 80.800,276.776 80.800 C 276.349 80.800,276.000 80.620,276.000 80.400 C 276.000 80.180,275.640 80.000,275.200 80.000 C 274.760 80.000,274.400 79.820,274.400 79.600 C 274.400 79.380,273.950 79.200,273.400 79.200 C 272.850 79.200,272.400 79.020,272.400 78.800 C 272.400 78.580,272.051 78.400,271.624 78.400 C 271.197 78.400,270.745 78.234,270.619 78.031 C 270.494 77.828,269.808 77.536,269.095 77.381 C 268.383 77.227,266.967 76.682,265.949 76.169 C 264.931 75.656,263.986 75.348,263.849 75.485 C 263.712 75.621,263.600 75.523,263.600 75.267 C 263.600 75.010,263.060 74.800,262.400 74.800 C 261.740 74.800,261.200 74.620,261.200 74.400 C 261.200 74.180,260.840 74.000,260.400 74.000 C 259.960 74.000,259.600 73.820,259.600 73.600 C 259.600 73.380,259.150 73.200,258.600 73.200 C 258.050 73.200,257.600 73.020,257.600 72.800 C 257.600 72.580,257.240 72.400,256.800 72.400 C 256.360 72.400,256.000 72.220,256.000 72.000 C 256.000 71.780,255.651 71.600,255.224 71.600 C 254.797 71.600,254.336 71.420,254.200 71.200 C 254.064 70.980,253.513 70.800,252.976 70.800 C 252.439 70.800,252.000 70.620,252.000 70.400 C 252.000 70.180,251.640 70.000,251.200 70.000 C 250.760 70.000,250.400 69.820,250.400 69.600 C 250.400 69.380,250.051 69.200,249.624 69.200 C 249.197 69.200,248.736 69.020,248.600 68.800 C 248.464 68.580,247.913 68.400,247.376 68.400 C 246.839 68.400,246.400 68.220,246.400 68.000 C 246.400 67.780,246.040 67.600,245.600 67.600 C 245.160 67.600,244.800 67.420,244.800 67.200 C 244.800 66.980,244.528 66.800,244.195 66.800 C 243.862 66.800,243.277 66.643,242.895 66.450 C 239.789 64.886,238.621 64.400,237.962 64.400 C 237.543 64.400,237.200 64.220,237.200 64.000 C 237.200 63.780,236.840 63.600,236.400 63.600 C 235.960 63.600,235.600 63.420,235.600 63.200 C 235.600 62.980,235.251 62.800,234.824 62.800 C 234.397 62.800,233.936 62.620,233.800 62.400 C 233.664 62.180,233.113 62.000,232.576 62.000 C 232.039 62.000,231.600 61.820,231.600 61.600 C 231.600 61.380,231.240 61.200,230.800 61.200 C 230.360 61.200,230.000 61.026,230.000 60.814 C 230.000 60.601,229.111 60.310,228.024 60.165 C 226.868 60.012,225.957 59.664,225.827 59.326 C 225.705 59.009,225.437 58.854,225.230 58.981 C 225.024 59.109,224.742 59.030,224.604 58.807 C 224.466 58.583,224.003 58.400,223.576 58.400 C 223.149 58.400,222.800 58.201,222.800 57.957 C 222.800 57.714,222.535 57.616,222.212 57.740 C 221.888 57.864,221.361 57.704,221.040 57.383 C 220.719 57.062,220.174 56.800,219.829 56.800 C 219.483 56.800,219.200 56.620,219.200 56.400 C 219.200 56.180,218.660 56.000,218.000 56.000 C 217.340 56.000,216.800 55.820,216.800 55.600 C 216.800 55.380,216.440 55.200,216.000 55.200 C 215.560 55.200,215.200 55.020,215.200 54.800 C 215.200 54.580,214.660 54.400,214.000 54.400 C 213.340 54.400,212.800 54.220,212.800 54.000 C 212.800 53.780,212.080 53.600,211.200 53.600 C 210.320 53.600,209.600 53.420,209.600 53.200 C 209.600 52.980,208.621 52.800,207.424 52.800 C 206.227 52.800,205.136 52.620,205.000 52.400 C 204.672 51.870,195.485 51.875,194.954 52.406 M365.600 197.561 C 363.552 198.634,363.151 198.800,362.605 198.800 C 362.272 198.800,362.000 198.980,362.000 199.200 C 362.000 199.420,361.651 199.600,361.224 199.600 C 360.797 199.600,360.336 199.780,360.200 200.000 C 360.064 200.220,359.603 200.400,359.176 200.400 C 358.749 200.400,358.400 200.580,358.400 200.800 C 358.400 201.020,358.040 201.200,357.600 201.200 C 357.160 201.200,356.800 201.380,356.800 201.600 C 356.800 201.820,356.260 202.000,355.600 202.000 C 354.940 202.000,354.400 202.180,354.400 202.400 C 354.400 202.620,354.040 202.800,353.600 202.800 C 353.160 202.800,352.800 202.980,352.800 203.200 C 352.800 203.420,352.440 203.600,352.000 203.600 C 351.560 203.600,351.200 203.780,351.200 204.000 C 351.200 204.220,350.840 204.400,350.400 204.400 C 349.620 204.400,349.600 204.667,349.600 215.190 L 349.600 225.980 347.782 226.808 C 346.782 227.264,345.627 227.943,345.216 228.318 C 344.806 228.693,343.919 229.450,343.247 230.000 C 342.574 230.550,342.019 231.198,342.012 231.441 C 342.005 231.683,341.460 232.446,340.800 233.137 C 340.140 233.828,339.600 234.664,339.600 234.996 C 339.600 235.328,339.420 235.600,339.200 235.600 C 338.980 235.600,338.800 235.960,338.800 236.400 C 338.800 236.840,338.620 237.200,338.400 237.200 C 338.180 237.200,338.000 237.740,338.000 238.400 C 338.000 239.060,337.820 239.600,337.600 239.600 C 337.351 239.600,337.200 241.933,337.200 245.800 C 337.200 249.667,337.351 252.000,337.600 252.000 C 337.820 252.000,338.000 252.540,338.000 253.200 C 338.000 253.860,338.180 254.400,338.400 254.400 C 338.620 254.400,338.800 254.760,338.800 255.200 C 338.800 255.640,338.980 256.000,339.200 256.000 C 339.420 256.000,339.600 256.276,339.600 256.613 C 339.600 256.949,339.863 257.326,340.185 257.450 C 340.506 257.573,340.891 258.062,341.039 258.537 C 341.187 259.012,341.808 259.881,342.418 260.469 C 343.029 261.057,343.424 261.642,343.297 261.769 C 343.171 261.896,343.277 262.000,343.533 262.000 C 344.303 262.000,344.067 262.522,342.597 264.073 C 341.828 264.884,341.200 265.789,341.200 266.085 C 341.200 266.381,340.840 266.883,340.400 267.200 C 339.960 267.517,339.600 268.097,339.600 268.488 C 339.600 268.880,339.420 269.200,339.200 269.200 C 338.980 269.200,338.800 269.560,338.800 270.000 C 338.800 270.440,338.620 270.800,338.400 270.800 C 338.180 270.800,338.000 271.340,338.000 272.000 C 338.000 272.660,337.820 273.200,337.600 273.200 C 337.340 273.200,337.200 278.667,337.200 288.800 C 337.200 298.933,337.340 304.400,337.600 304.400 C 337.820 304.400,338.000 304.606,338.000 304.857 C 338.000 305.267,338.960 306.253,341.059 308.000 C 342.828 309.473,376.000 308.983,376.000 307.485 C 376.000 307.255,376.109 307.176,376.242 307.309 C 376.595 307.662,378.400 305.746,378.400 305.018 C 378.400 304.678,378.580 304.400,378.800 304.400 C 379.020 304.400,379.200 304.040,379.200 303.600 C 379.200 303.160,379.380 302.800,379.600 302.800 C 379.820 302.800,380.000 302.429,380.000 301.976 C 380.000 301.479,379.826 301.261,379.560 301.425 C 379.247 301.618,379.249 301.456,379.568 300.859 C 380.137 299.796,380.148 275.600,379.580 275.600 C 379.371 275.600,379.200 274.880,379.200 274.000 C 379.200 273.120,379.020 272.400,378.800 272.400 C 378.580 272.400,378.400 271.860,378.400 271.200 C 378.400 270.540,378.220 270.000,378.000 270.000 C 377.780 270.000,377.600 269.722,377.600 269.383 C 377.600 269.044,377.240 268.380,376.800 267.908 C 376.360 267.436,376.000 266.802,376.000 266.501 C 376.000 266.199,375.820 266.064,375.600 266.200 C 375.380 266.336,375.200 266.173,375.200 265.837 C 375.200 265.501,374.563 264.590,373.784 263.811 L 372.368 262.395 373.284 261.456 C 374.819 259.883,376.000 258.411,376.000 258.072 C 376.000 257.896,376.315 257.393,376.700 256.955 C 377.769 255.740,378.400 254.496,378.400 253.605 C 378.400 253.162,378.580 252.800,378.800 252.800 C 379.020 252.800,379.200 252.080,379.200 251.200 C 379.200 250.320,379.380 249.600,379.600 249.600 C 379.837 249.600,380.000 248.141,380.000 246.024 C 380.000 244.057,379.820 242.336,379.600 242.200 C 379.380 242.064,379.200 241.243,379.200 240.376 C 379.200 239.509,379.020 238.800,378.800 238.800 C 378.580 238.800,378.400 238.361,378.400 237.824 C 378.400 237.287,378.220 236.736,378.000 236.600 C 377.780 236.464,377.600 236.043,377.600 235.665 C 377.600 235.286,377.240 234.717,376.800 234.400 C 376.360 234.083,376.000 233.547,376.000 233.209 C 376.000 232.366,371.740 228.358,369.573 227.162 L 367.800 226.185 367.695 211.692 C 367.582 196.062,367.645 196.490,365.600 197.561 M74.800 250.800 C 74.800 273.521,74.940 286.400,75.188 286.400 C 75.401 286.400,75.551 287.046,75.522 287.836 C 75.490 288.689,75.697 289.416,76.034 289.629 C 76.345 289.826,76.443 289.991,76.251 289.994 C 76.059 289.997,76.126 290.270,76.400 290.600 C 76.714 290.978,76.741 291.200,76.473 291.200 C 76.205 291.200,76.253 291.597,76.603 292.271 C 76.909 292.861,77.068 293.491,76.956 293.671 C 76.844 293.852,76.943 294.000,77.176 294.000 C 77.409 294.000,77.600 294.360,77.600 294.800 C 77.600 295.240,77.780 295.600,78.000 295.600 C 78.220 295.600,78.400 295.960,78.400 296.400 C 78.400 296.840,78.580 297.200,78.800 297.200 C 79.020 297.200,79.200 297.560,79.200 298.000 C 79.200 298.440,79.380 298.800,79.600 298.800 C 79.820 298.800,80.000 299.120,80.000 299.512 C 80.000 299.903,80.360 300.483,80.800 300.800 C 81.240 301.117,81.600 301.604,81.600 301.881 C 81.600 302.908,88.776 310.400,89.758 310.400 C 90.111 310.400,90.400 310.580,90.400 310.800 C 90.400 311.020,90.700 311.200,91.067 311.200 C 91.433 311.200,91.622 311.311,91.486 311.448 C 91.182 311.751,92.179 312.800,92.771 312.800 C 93.007 312.800,93.200 312.980,93.200 313.200 C 93.200 313.420,93.470 313.600,93.800 313.600 C 94.130 313.600,94.400 313.780,94.400 314.000 C 94.400 314.220,94.771 314.400,95.224 314.400 C 95.677 314.400,95.936 314.580,95.800 314.800 C 95.664 315.020,95.923 315.200,96.376 315.200 C 96.829 315.200,97.200 315.380,97.200 315.600 C 97.200 315.820,97.560 316.000,98.000 316.000 C 98.440 316.000,98.800 316.152,98.800 316.337 C 98.800 316.523,99.655 317.108,100.700 317.637 C 101.745 318.167,102.660 318.735,102.733 318.900 C 102.807 319.065,103.212 319.200,103.633 319.200 C 104.055 319.200,104.400 319.380,104.400 319.600 C 104.400 319.820,104.760 320.000,105.200 320.000 C 105.640 320.000,106.000 320.180,106.000 320.400 C 106.000 320.620,106.360 320.800,106.800 320.800 C 107.240 320.800,107.600 320.980,107.600 321.200 C 107.600 321.420,107.960 321.600,108.400 321.600 C 108.840 321.600,109.200 321.780,109.200 322.000 C 109.200 322.220,109.453 322.400,109.762 322.400 C 110.071 322.400,111.016 322.743,111.862 323.163 C 114.583 324.512,116.305 325.200,116.960 325.200 C 117.312 325.200,117.600 325.380,117.600 325.600 C 117.600 325.820,118.140 326.000,118.800 326.000 C 119.460 326.000,120.000 326.180,120.000 326.400 C 120.000 326.620,120.360 326.800,120.800 326.800 C 121.240 326.800,121.600 326.980,121.600 327.200 C 121.600 327.420,122.196 327.600,122.925 327.600 C 123.696 327.600,124.608 327.934,125.108 328.400 C 125.580 328.840,126.334 329.200,126.783 329.200 C 127.232 329.200,127.600 329.380,127.600 329.600 C 127.600 329.820,128.140 330.000,128.800 330.000 C 129.460 330.000,130.000 330.180,130.000 330.400 C 130.000 330.620,130.439 330.800,130.976 330.800 C 131.513 330.800,132.064 330.980,132.200 331.200 C 132.336 331.420,132.977 331.600,133.624 331.600 C 134.271 331.600,134.800 331.780,134.800 332.000 C 134.800 332.220,135.340 332.400,136.000 332.400 C 136.660 332.400,137.200 332.558,137.200 332.750 C 137.200 332.943,137.688 333.100,138.283 333.100 C 138.879 333.100,139.434 333.303,139.517 333.550 C 139.599 333.798,140.181 334.000,140.810 334.000 C 141.438 334.000,142.064 334.180,142.200 334.400 C 142.336 334.620,142.977 334.800,143.624 334.800 C 144.271 334.800,144.800 334.980,144.800 335.200 C 144.800 335.420,145.520 335.600,146.400 335.600 C 147.280 335.600,148.000 335.780,148.000 336.000 C 148.000 336.220,148.720 336.400,149.600 336.400 C 150.480 336.400,151.200 336.580,151.200 336.800 C 151.200 337.020,151.909 337.200,152.776 337.200 C 153.643 337.200,154.464 337.380,154.600 337.600 C 154.736 337.820,155.647 338.000,156.624 338.000 C 157.601 338.000,158.400 338.163,158.400 338.361 C 158.400 338.560,159.255 338.822,160.300 338.944 C 161.345 339.065,163.370 339.370,164.800 339.622 C 166.230 339.873,168.600 340.106,170.067 340.139 C 171.589 340.174,172.705 340.372,172.667 340.600 C 172.585 341.089,177.928 341.500,185.100 341.558 C 188.338 341.584,190.400 341.756,190.400 342.000 C 190.400 342.256,193.867 342.400,200.000 342.400 C 205.280 342.400,209.600 342.249,209.600 342.064 C 209.600 341.879,213.495 341.610,218.255 341.467 C 223.015 341.324,227.110 341.042,227.355 340.841 C 227.600 340.641,228.880 340.379,230.200 340.260 C 231.520 340.142,233.770 339.847,235.200 339.605 C 236.630 339.363,238.655 339.065,239.700 338.944 C 240.745 338.822,241.600 338.560,241.600 338.361 C 241.600 338.163,242.399 338.000,243.376 338.000 C 244.353 338.000,245.264 337.820,245.400 337.600 C 245.536 337.380,246.357 337.200,247.224 337.200 C 248.091 337.200,248.800 337.020,248.800 336.800 C 248.800 336.580,249.520 336.400,250.400 336.400 C 251.280 336.400,252.000 336.220,252.000 336.000 C 252.000 335.780,252.720 335.600,253.600 335.600 C 254.480 335.600,255.200 335.420,255.200 335.200 C 255.200 334.980,255.830 334.800,256.600 334.800 C 257.370 334.800,258.000 334.620,258.000 334.400 C 258.000 334.180,258.540 334.000,259.200 334.000 C 259.860 334.000,260.400 333.820,260.400 333.600 C 260.400 333.380,260.940 333.200,261.600 333.200 C 262.260 333.200,262.800 333.020,262.800 332.800 C 262.800 332.580,263.329 332.400,263.976 332.400 C 264.623 332.400,265.264 332.220,265.400 332.000 C 265.536 331.780,266.076 331.600,266.600 331.600 C 267.124 331.600,267.664 331.420,267.800 331.200 C 267.936 330.980,268.487 330.800,269.024 330.800 C 269.561 330.800,270.000 330.620,270.000 330.400 C 270.000 330.180,270.540 330.000,271.200 330.000 C 271.860 330.000,272.400 329.820,272.400 329.600 C 272.400 329.380,272.861 329.200,273.424 329.200 C 274.004 329.200,274.340 329.027,274.200 328.800 C 274.060 328.573,274.396 328.400,274.976 328.400 C 275.539 328.400,276.000 328.220,276.000 328.000 C 276.000 327.780,276.540 327.600,277.200 327.600 C 277.860 327.600,278.400 327.420,278.400 327.200 C 278.400 326.980,278.749 326.800,279.176 326.800 C 279.603 326.800,280.064 326.620,280.200 326.400 C 280.336 326.180,280.887 326.000,281.424 326.000 C 281.961 326.000,282.400 325.820,282.400 325.600 C 282.400 325.380,282.664 325.200,282.986 325.200 C 283.636 325.200,285.401 324.474,288.956 322.746 C 290.252 322.116,291.557 321.600,291.856 321.600 C 292.155 321.600,292.400 321.420,292.400 321.200 C 292.400 320.980,292.760 320.800,293.200 320.800 C 293.640 320.800,294.000 320.620,294.000 320.400 C 294.000 320.180,294.360 320.000,294.800 320.000 C 295.240 320.000,295.600 319.820,295.600 319.600 C 295.600 319.380,295.960 319.200,296.400 319.200 C 296.858 319.200,297.200 318.933,297.200 318.576 C 297.200 318.233,297.380 318.064,297.599 318.200 C 298.016 318.457,299.730 317.464,299.415 317.148 C 299.315 317.049,299.629 316.938,300.111 316.902 C 300.594 316.865,301.051 316.648,301.127 316.418 C 301.204 316.188,301.612 316.000,302.033 316.000 C 302.455 316.000,302.800 315.820,302.800 315.600 C 302.800 315.380,303.160 315.200,303.600 315.200 C 304.040 315.200,304.400 315.020,304.400 314.800 C 304.400 314.580,304.670 314.400,305.000 314.400 C 305.330 314.400,305.600 314.220,305.600 314.000 C 305.600 313.780,305.870 313.600,306.200 313.600 C 306.530 313.600,306.800 313.420,306.800 313.200 C 306.800 312.980,306.982 312.800,307.204 312.800 C 307.426 312.800,308.172 312.260,308.863 311.600 C 309.554 310.940,310.291 310.400,310.501 310.400 C 311.287 310.400,318.400 302.730,318.400 301.881 C 318.400 301.604,318.760 301.117,319.200 300.800 C 319.640 300.483,320.000 299.903,320.000 299.512 C 320.000 299.120,320.180 298.800,320.400 298.800 C 320.620 298.800,320.800 298.440,320.800 298.000 C 320.800 297.560,320.980 297.200,321.200 297.200 C 321.420 297.200,321.600 296.840,321.600 296.400 C 321.600 295.960,321.780 295.600,322.000 295.600 C 322.220 295.600,322.400 295.240,322.400 294.800 C 322.400 294.360,322.580 294.000,322.800 294.000 C 323.020 294.000,323.200 293.561,323.200 293.024 C 323.200 292.487,323.380 291.936,323.600 291.800 C 323.820 291.664,324.000 291.023,324.000 290.376 C 324.000 289.729,324.141 289.200,324.314 289.200 C 324.876 289.200,324.895 288.228,325.057 251.500 L 325.217 215.200 324.208 215.200 C 323.654 215.200,323.200 215.380,323.200 215.600 C 323.200 215.820,322.840 216.000,322.400 216.000 C 321.960 216.000,321.600 216.147,321.600 216.328 C 321.600 216.508,320.700 216.900,319.600 217.200 C 318.500 217.500,317.600 217.892,317.600 218.072 C 317.600 218.253,317.317 218.400,316.971 218.400 C 316.626 218.400,316.081 218.662,315.760 218.983 C 315.439 219.304,314.912 219.464,314.588 219.340 C 314.265 219.216,314.000 219.314,314.000 219.557 C 314.000 219.801,313.550 220.000,313.000 220.000 C 312.450 220.000,312.000 220.180,312.000 220.400 C 312.000 220.620,311.640 220.800,311.200 220.800 C 310.760 220.800,310.400 220.980,310.400 221.200 C 310.400 221.420,309.950 221.600,309.400 221.600 C 308.850 221.600,308.400 221.780,308.400 222.000 C 308.400 222.220,308.040 222.400,307.600 222.400 C 307.160 222.400,306.800 222.580,306.800 222.800 C 306.800 223.020,306.440 223.200,306.000 223.200 C 305.560 223.200,305.200 223.380,305.200 223.600 C 305.200 223.820,304.660 224.000,304.000 224.000 C 303.340 224.000,302.800 224.180,302.800 224.400 C 302.800 224.620,302.440 224.800,302.000 224.800 C 301.560 224.800,301.200 224.991,301.200 225.224 C 301.200 225.457,301.039 225.548,300.842 225.426 C 300.469 225.195,298.043 226.085,297.467 226.665 C 297.283 226.849,297.013 227.009,296.867 227.020 C 295.755 227.102,292.137 228.655,291.804 229.193 C 291.678 229.398,291.281 229.452,290.922 229.315 C 290.485 229.147,290.365 229.219,290.558 229.532 C 290.754 229.850,290.462 230.000,289.647 230.000 C 288.987 230.000,288.336 230.180,288.200 230.400 C 288.064 230.620,287.603 230.800,287.176 230.800 C 286.749 230.800,286.400 230.980,286.400 231.200 C 286.400 231.420,286.040 231.600,285.600 231.600 C 285.160 231.600,284.800 231.780,284.800 232.000 C 284.800 232.220,284.260 232.400,283.600 232.400 C 282.940 232.400,282.400 232.580,282.400 232.800 C 282.400 233.020,282.040 233.200,281.600 233.200 C 281.160 233.200,280.800 233.380,280.800 233.600 C 280.800 233.820,280.528 234.000,280.195 234.000 C 279.862 234.000,279.277 234.168,278.895 234.374 C 278.513 234.579,277.615 234.983,276.900 235.271 C 276.185 235.560,275.600 235.931,275.600 236.098 C 275.600 236.264,275.161 236.400,274.624 236.400 C 274.087 236.400,273.536 236.580,273.400 236.800 C 273.264 237.020,272.803 237.200,272.376 237.200 C 271.949 237.200,271.600 237.380,271.600 237.600 C 271.600 237.820,271.240 238.000,270.800 238.000 C 270.360 238.000,270.000 238.180,270.000 238.400 C 270.000 238.620,269.460 238.800,268.800 238.800 C 268.140 238.800,267.600 238.980,267.600 239.200 C 267.600 239.420,267.240 239.600,266.800 239.600 C 266.360 239.600,266.000 239.780,266.000 240.000 C 266.000 240.220,265.640 240.400,265.200 240.400 C 264.760 240.400,264.400 240.580,264.400 240.800 C 264.400 241.020,263.849 241.200,263.176 241.200 C 262.463 241.200,262.056 241.367,262.200 241.600 C 262.340 241.827,262.004 242.000,261.424 242.000 C 260.861 242.000,260.400 242.199,260.400 242.443 C 260.400 242.686,260.167 242.796,259.882 242.687 C 259.598 242.578,258.666 242.828,257.811 243.244 C 256.956 243.660,256.019 244.000,255.729 244.000 C 255.438 244.000,255.200 244.147,255.200 244.328 C 255.200 244.508,254.300 244.900,253.200 245.200 C 252.100 245.500,251.200 245.892,251.200 246.072 C 251.200 246.253,250.840 246.400,250.400 246.400 C 249.960 246.400,249.600 246.580,249.600 246.800 C 249.600 247.020,249.144 247.200,248.587 247.200 C 248.031 247.200,247.479 247.450,247.362 247.756 C 247.238 248.077,246.822 248.226,246.374 248.109 C 245.948 247.998,245.600 248.108,245.600 248.353 C 245.600 248.599,245.240 248.800,244.800 248.800 C 244.360 248.800,244.000 248.980,244.000 249.200 C 244.000 249.420,243.550 249.600,243.000 249.600 C 242.450 249.600,242.000 249.780,242.000 250.000 C 242.000 250.220,241.640 250.400,241.200 250.400 C 240.760 250.400,240.400 250.580,240.400 250.800 C 240.400 251.020,239.961 251.200,239.424 251.200 C 238.887 251.200,238.336 251.380,238.200 251.600 C 238.064 251.820,237.603 252.000,237.176 252.000 C 236.749 252.000,236.400 252.180,236.400 252.400 C 236.400 252.620,236.040 252.800,235.600 252.800 C 235.160 252.800,234.800 252.980,234.800 253.200 C 234.800 253.420,234.350 253.600,233.800 253.600 C 233.250 253.600,232.800 253.780,232.800 254.000 C 232.800 254.220,232.390 254.400,231.888 254.400 C 231.387 254.400,230.720 254.756,230.406 255.191 C 229.987 255.773,229.754 255.852,229.524 255.491 C 229.279 255.106,229.211 255.108,229.206 255.500 C 229.203 255.775,228.750 256.000,228.200 256.000 C 227.650 256.000,227.200 256.180,227.200 256.400 C 227.200 256.620,226.840 256.800,226.400 256.800 C 225.960 256.800,225.600 256.980,225.600 257.200 C 225.600 257.420,225.240 257.600,224.800 257.600 C 224.360 257.600,224.000 257.780,224.000 258.000 C 224.000 258.220,223.471 258.400,222.824 258.400 C 222.177 258.400,221.534 258.583,221.396 258.807 C 221.258 259.030,220.976 259.109,220.770 258.981 C 220.563 258.854,220.300 258.996,220.184 259.297 C 220.061 259.619,219.486 259.810,218.787 259.762 C 218.134 259.717,217.600 259.842,217.600 260.040 C 217.600 260.238,217.138 260.400,216.574 260.400 C 216.009 260.400,215.219 260.576,214.818 260.790 C 214.417 261.005,213.515 261.224,212.814 261.278 C 212.113 261.331,211.452 261.515,211.346 261.687 C 211.240 261.859,210.274 262.000,209.200 262.000 C 208.126 262.000,207.136 262.180,207.000 262.400 C 206.851 262.641,204.070 262.800,200.000 262.800 C 195.930 262.800,193.149 262.641,193.000 262.400 C 192.864 262.180,191.874 262.000,190.800 262.000 C 189.726 262.000,188.748 261.839,188.626 261.642 C 188.505 261.445,187.729 261.182,186.903 261.058 C 183.470 260.539,182.400 260.298,182.400 260.043 C 182.400 259.896,181.923 259.735,181.340 259.687 C 180.758 259.639,180.038 259.397,179.740 259.151 C 179.443 258.904,179.200 258.850,179.200 259.031 C 179.200 259.212,178.984 259.144,178.720 258.880 C 178.456 258.616,177.934 258.400,177.561 258.400 C 177.187 258.400,175.855 257.860,174.600 257.200 C 173.345 256.540,171.977 256.000,171.559 256.000 C 171.142 256.000,170.800 255.820,170.800 255.600 C 170.800 255.380,170.440 255.200,170.000 255.200 C 169.560 255.200,169.200 255.020,169.200 254.800 C 169.200 254.580,168.840 254.400,168.400 254.400 C 167.960 254.400,167.600 254.220,167.600 254.000 C 167.600 253.780,167.060 253.600,166.400 253.600 C 165.740 253.600,165.200 253.420,165.200 253.200 C 165.200 252.980,164.840 252.800,164.400 252.800 C 163.960 252.800,163.600 252.653,163.600 252.472 C 163.600 252.292,162.700 251.900,161.600 251.600 C 160.500 251.300,159.600 250.908,159.600 250.728 C 159.600 250.547,159.240 250.400,158.800 250.400 C 158.360 250.400,158.000 250.220,158.000 250.000 C 158.000 249.780,157.550 249.600,157.000 249.600 C 156.450 249.600,156.000 249.420,156.000 249.200 C 156.000 248.980,155.640 248.800,155.200 248.800 C 154.760 248.800,154.400 248.620,154.400 248.400 C 154.400 248.180,154.051 248.000,153.624 248.000 C 153.197 248.000,152.736 247.820,152.600 247.600 C 152.464 247.380,151.913 247.200,151.376 247.200 C 150.839 247.200,150.400 247.020,150.400 246.800 C 150.400 246.580,150.040 246.400,149.600 246.400 C 149.160 246.400,148.800 246.220,148.800 246.000 C 148.800 245.780,148.451 245.600,148.024 245.600 C 147.597 245.600,147.136 245.420,147.000 245.200 C 146.864 244.980,146.313 244.800,145.776 244.800 C 145.239 244.800,144.800 244.620,144.800 244.400 C 144.800 244.180,144.451 244.000,144.024 244.000 C 143.597 244.000,143.141 243.828,143.011 243.617 C 142.881 243.407,142.510 243.336,142.187 243.460 C 141.864 243.584,141.600 243.486,141.600 243.243 C 141.600 242.999,141.150 242.800,140.600 242.800 C 140.050 242.800,139.600 242.620,139.600 242.400 C 139.600 242.180,139.240 242.000,138.800 242.000 C 138.360 242.000,138.000 241.820,138.000 241.600 C 138.000 241.380,137.561 241.200,137.024 241.200 C 136.487 241.200,135.936 241.020,135.800 240.800 C 135.664 240.580,135.203 240.400,134.776 240.400 C 134.349 240.400,134.000 240.220,134.000 240.000 C 134.000 239.780,133.640 239.600,133.200 239.600 C 132.760 239.600,132.400 239.420,132.400 239.200 C 132.400 238.980,131.860 238.800,131.200 238.800 C 130.540 238.800,130.000 238.620,130.000 238.400 C 130.000 238.180,129.640 238.000,129.200 238.000 C 128.760 238.000,128.400 237.820,128.400 237.600 C 128.400 237.380,128.040 237.200,127.600 237.200 C 127.160 237.200,126.800 237.020,126.800 236.800 C 126.800 236.580,126.249 236.400,125.576 236.400 C 124.863 236.400,124.456 236.233,124.600 236.000 C 124.736 235.780,124.487 235.600,124.047 235.600 C 123.607 235.600,123.128 235.408,122.983 235.173 C 122.838 234.938,122.460 234.845,122.144 234.966 C 121.828 235.087,121.467 234.920,121.342 234.593 C 121.217 234.267,120.684 234.000,120.157 234.000 C 119.631 234.000,119.200 233.820,119.200 233.600 C 119.200 233.380,118.840 233.200,118.400 233.200 C 117.960 233.200,117.600 233.020,117.600 232.800 C 117.600 232.580,117.161 232.400,116.624 232.400 C 116.087 232.400,115.536 232.220,115.400 232.000 C 115.264 231.780,114.803 231.600,114.376 231.600 C 113.949 231.600,113.600 231.420,113.600 231.200 C 113.600 230.980,113.240 230.800,112.800 230.800 C 112.360 230.800,112.000 230.620,112.000 230.400 C 112.000 230.180,111.460 230.000,110.800 230.000 C 110.140 230.000,109.600 229.820,109.600 229.600 C 109.600 229.380,109.335 229.200,109.012 229.200 C 108.689 229.200,107.783 228.840,107.000 228.400 C 106.217 227.960,105.390 227.600,105.162 227.600 C 104.935 227.600,103.725 227.123,102.474 226.539 C 101.223 225.956,99.885 225.495,99.500 225.514 C 99.115 225.534,98.800 225.381,98.800 225.175 C 98.800 224.969,98.440 224.800,98.000 224.800 C 97.560 224.800,97.200 224.601,97.200 224.357 C 97.200 224.114,96.947 224.011,96.639 224.130 C 96.330 224.248,95.745 224.093,95.339 223.785 C 94.932 223.477,94.285 223.220,93.900 223.213 C 93.515 223.206,93.200 223.020,93.200 222.800 C 93.200 222.580,92.840 222.400,92.400 222.400 C 91.960 222.400,91.600 222.220,91.600 222.000 C 91.600 221.780,91.150 221.600,90.600 221.600 C 90.050 221.600,89.600 221.420,89.600 221.200 C 89.600 220.980,89.240 220.800,88.800 220.800 C 88.360 220.800,88.000 220.620,88.000 220.400 C 88.000 220.180,87.651 220.000,87.224 220.000 C 86.797 220.000,86.336 219.820,86.200 219.600 C 86.064 219.380,85.513 219.200,84.976 219.200 C 84.439 219.200,84.000 219.020,84.000 218.800 C 84.000 218.580,83.640 218.400,83.200 218.400 C 82.760 218.400,82.400 218.220,82.400 218.000 C 82.400 217.780,82.051 217.600,81.624 217.600 C 81.197 217.600,80.736 217.420,80.600 217.200 C 80.464 216.980,79.913 216.800,79.376 216.800 C 78.839 216.800,78.400 216.620,78.400 216.400 C 78.400 216.180,78.040 216.000,77.600 216.000 C 77.160 216.000,76.800 215.820,76.800 215.600 C 76.800 215.380,76.350 215.200,75.800 215.200 L 74.800 215.200 74.800 250.800 " stroke="none" fill="#6c64fc" fill-rule="evenodd"></path><path id="path1" d="" stroke="none" fill="#7064fc" fill-rule="evenodd"></path><path id="path2" d="" stroke="none" fill="#7064fc" fill-rule="evenodd"></path><path id="path3" d="" stroke="none" fill="#7064fc" fill-rule="evenodd"></path><path id="path4" d="" stroke="none" fill="#7064fc" fill-rule="evenodd"></path></g></svg>